<svg xmlns="http://www.w3.org/2000/svg" viewBox="0 0 371.74 338.44"><defs><style>.cls-1{fill:#703032;}.cls-2{fill:#835c67;}.cls-3{fill:#e77e25;}.cls-4{fill:#70bd82;}.cls-5{fill:#c05f29;}.cls-6{fill:#40ae5c;}.cls-7{fill:#f6d1af;}.cls-8{fill:#eecb31;}.cls-9{fill:#88bd98;}.cls-10{fill:#f6df8e;}.cls-11{fill:#cea7a3;}.cls-12{fill:#fcfcfd;}.cls-13{fill:#b27759;}</style></defs><g id="Layer_2" data-name="Layer 2"><g id="Layer_1-2" data-name="Layer 1"><path class="cls-1" d="M41.76,94.52C45.23,85.43,52,82,61.45,82.27c11.41.29,22.84-.09,34.26.14,5.12.11,7.13-.55,5.62-6.71-3-12.36-4.91-25-7.27-37.53l.33-8,.18-.14L100.31,28l11.87-2.33,6.4-1.61,3.58-.48,6.45-1.63c8.49-2.53,17.07-4.83,25.41-7.78,2-.71,3.85-3.4,4.65-5.59,3.59-9.75,3.36-9.38,14-7.51,9.38,1.66,19,2.14,28.44,3.33,1.45.18,2.8,1.31,4.16,2.06,2.55,1.41,4.91,3.41,7.63,4.2,17.5,5.06,35,10.14,52.66,14.61,6.12,1.55,8.81,3.53,6.58,10.21-2,6-3.1,12.37-4.6,18.57l.81,7.88c2.55,1.55,5.49,2.71,7.59,4.74,7.41,7.18,12.35,16.64,23.37,20.48,3.57,1.25,6.66,9.41,6.71,14.43.48,50.23.69,100.48.09,150.71-.23,19.8-7.26,23.29-20.48,26.67-5.92,1.5-8.24,4.17-7.65,10.41.62,6.68.26,13.47.19,20.21-.24,21.37-14.24,32.52-35.52,27.82C222.66,333,202.85,328,183,323.31l-6.33-2c-14.85-3.3-29.74-6.46-44.53-10-3.35-.81-6.37-3-9.54-4.54l-6.42-1.39h0l-9.87-2.48c-15.76-3.57-31.59-6.9-47.25-10.89-4-1-7.59-4.12-11.36-6.27l26.05,5.3,4.47,1.31c26.14,6.86,52.21,14,78.45,20.5,27.35,6.78,55,12.33,82.22,19.65,12.74,3.43,23-5,22.76-18.37-.86-45.49-.3-91-.45-136.53,0-3.94-1.21-7.88-1.85-11.82l-11.86-8.49-16.23-3.73L193.33,145l-4.43-3.37-31.71-6.94L150.7,133a2.06,2.06,0,0,0-1.6-.31l-6.49-1.53L78.45,116.58,65.72,113.3l-13.46-2.84c-5.74-4-5.74-4-7.36-1.3l.42,5.21-.8,4.5c-.17,17.7-.38,35.41-.44,53.12,0,1.09,1.2,2.19,1.85,3.29,6.77,10.29,15,19.91,19.94,31,6.64,15.1-3.45,29.82-20,32.08l-1,30.66.81,4.87,1.86,11.74-6-8.53c.1-11.66.32-23.33.19-35,0-1.94-1.58-3.85-2.43-5.77-16.78-8.87-28.37-22.87-36.56-39.47-6.43-13-1-26.85,10.93-32.19,9.23-4.11,16.79-.44,24,5,6.35,2.28,4.08-2.92,4.1-5.21C41.89,141.2,41.8,117.86,41.76,94.52ZM130.61,26.1l-3.86.08-6.22,1.52c-5.51,1.22-11,2.91-16.55,3.55-5.89.67-7.89,2.12-6,8.76,2.94,10.53,4.39,21.48,6.48,32.25.47,2.12.95,4.25,1.42,6.37l3,15.16c.47,3,.94,6,1.42,9.07l2.14,2.27,1.94,1.09c5.35,1,3.24-2.36,2.78-4.76-3-15.71-6.07-31.41-9-47.13-.35-1.85-1.06-4.54-.15-5.58,6.52-7.55,11.26-17.44,23.85-17,5.16.17,10.53-1.55,15.54-3.23,2.72-.92,4.86-3.56,7.26-5.43l-22.15,2.79A2.29,2.29,0,0,0,130.61,26.1ZM15.73,169.52l-6.26,4.12q-1.92,7.13-3.86,14.26c.76,2.6,1.51,5.2,2.27,7.8l7.71,12.18,9.67,10.72c6.37,5.21,10.57,13.71,20.45,13.61l10.12-2.59,0-5.06-4.18-.29-11.44-8.48c3.56,1.16,7,2.68,10.69,3.37,3.1.58,7.41,1.47,9.29-.08s2.46-6.48,1.41-9c-7.21-17.43-16.27-33.5-35.36-40.63Zm260-97.09L261.6,64.3a1.65,1.65,0,0,0-1.54-.52l-14.4.11-12.57,6.44c-16.17,14.31-16,36,.35,50.54,14.17,10.88,28.39,10.24,41.12-1.82a3.39,3.39,0,0,0,1.35-1.43l2.37-2.87c8.48-12.22,8.24-24.76,1.38-37.55Zm-223,16L47,94.35c-1.44,8,3.54,10.58,9.94,12.12L228.45,147.8c6.84,1.64,13.74,3,20.49,5,12.69,3.64,17,9.46,17,22.6q.06,70.29,0,140.59a57.66,57.66,0,0,1-1.05,8.94,55.14,55.14,0,0,1-1.43,5.44c1.89-1.12,4.72-1.8,5.48-3.44a65.7,65.7,0,0,0,4.66-14.21c.71-3.56.14-7.39.14-11.1q0-68.78,0-137.55c0-7.19-1.25-13.65-8.44-16.85a93.65,93.65,0,0,0-16.65-6c-21.54-5-43.23-9.35-64.76-14.38-39.64-9.27-79.22-18.82-118.79-28.4-1.85-.45-3.37-2.33-5-3.54,2-.75,4-2.12,6-2.16,10.76-.23,21.52,0,32.27-.27,1.61,0,3.17-1.73,4.75-2.66a1.81,1.81,0,0,0-.79-1c-2.18-.81-4.34-2.25-6.53-2.3-9.57-.24-19.15-.29-28.71,0C62.23,86.69,57.48,87.76,52.71,88.41ZM156.68,42l0-.07C151.37,64,146,86.16,140.84,108.33c-.13.55,2,1.63,3,2.47,1.58-2.2,4-4.18,4.59-6.61C154,80.42,160,56.7,164.33,32.69c1.93-10.66,14.85-9,16.76-18.4a98.79,98.79,0,0,1,9.71,2.16c4.94,1.61,9.64,4,14.64,5.35,11.95,3.15,24,5.81,36,8.77,7.57,1.87,15.85,13.21,15.92,21.21,0,1.51,1.19,3,1.84,4.51,1.41-1,3.74-1.81,4.09-3.12,1.8-6.77,3.09-13.68,4.55-20.55-2.57-1.52-5-3.71-7.75-4.44-12.6-3.29-25.33-6.08-38-9.21-12.4-3.06-24.76-6.31-37.13-9.48l.07,0c-5.51-1.83-11-4-16.59-5.27-1.5-.32-4.92,2.08-5.28,3.72C160.71,19.23,158.79,30.62,156.68,42Zm8.14,75a26.29,26.29,0,0,0,4.4,1.87c30.21,6.71,60.46,13.22,90.61,20.17,4.22,1,8,4,11.95,6.09,5.3,5.8,6.6,12.64,6.54,20.39-.27,32.89-.17,65.78,0,98.67,0,3.51,1,7,1.57,10.54l4.74-1.94c6.55-2.67,5.48-8.6,5.5-13.75.13-31.88.06-63.76.06-95.65,0-14.76.06-29.53,0-44.3,0-1.8-.93-3.59-1.42-5.38-1.68.86-3.68,1.38-5,2.64-4,4-7.8,8.19-11.67,12.32-11.94,4.78-24.07,6.91-35.75-.08-5.37-3.21-9.84-7.92-14.71-12q-29.82-.78-59.64-1.51a7,7,0,0,0-.07,1.45A26.53,26.53,0,0,0,164.82,117ZM299.9,94.38l-8.22-7.72-2.06,3.52c.65,4.26,1.08,8.56,2,12.75,1.28,5.73,4.2,11.36,4.25,17.06.36,44.12.23,88.25.14,132.38,0,4.31-.89,8.62-1.27,12.93a27.63,27.63,0,0,0,.17,3.85c1-.78,2.53-1.38,2.83-2.37,1.57-5,3.95-10.2,4-15.32.3-49.18.23-98.36.11-147.55C301.84,100.73,300.58,97.56,299.9,94.38Zm-111,17.87c6.24,0,12.48-.14,18.72,0,8.72.19,9.87-1.26,9.25-10-.41-5.92.13-11.91.24-17.87,6.35-14.07,16.48-23.77,31.46-28.4,2.08-.65,4.37-4.05,4.63-6.4C253.65,45.78,242.86,35,238.64,34c-16.23-3.93-32.45-7.88-48.7-11.74-8.6-2.05-19.67,4.66-21.7,13.44-5.77,25.09-11.34,50.24-17,75.37ZM130.28,110c4.49,1.24,5.54-1.15,6.35-5.12,3.33-16.4,7.13-32.7,10.57-49.08,1.61-7.64,2.82-15.38,4.21-23.07-7.83,1.5-15.68,2.88-23.48,4.53a19.33,19.33,0,0,0-15,22.27c2.65,14.12,5.34,28.25,8.51,42.25.61,2.72,3.5,4.91,5.33,7.35ZM98.55,95.93l-8.34,2.3c4,1.85,8,3.91,12.12,5.38.81.29,2.43-1.68,3.67-2.61Z"/><path class="cls-1" d="M337.09,242.15c-7.77-.22-14.12-10.16-11.06-16a68.52,68.52,0,0,1,8.1-11.31c6.39-7.77,13.21-15.18,19.39-23.09C358,186,362,186.65,367,190.79c4.88,4,6.75,7.57,2,13.26-9,10.73-17.37,22-26.16,32.88C341,239.17,338.53,240.86,337.09,242.15Zm-2.9-7.8c1.39,3.68,1.41,3.68,4.76.07l11.9-16.11,8.5-10.2,6-6.79c-.17-2.14.44-5.26-.7-6.19-1.6-1.3-4.52-1-6.88-1.34l-6.33,7.44q-5.1,6.27-10.18,12.56L332.1,227c-1.07,1.52-2.15,3-3.22,4.54l5.31,2.81Z"/><path class="cls-2" d="M41.76,94.52c0,23.34.13,46.68,0,70,0,2.29,2.25,7.49-4.1,5.21.77-2.64,2.18-5.28,2.21-7.93.22-18.49,0-37,.24-55.49C40.17,102.38,41.19,98.45,41.76,94.52Z"/><path class="cls-2" d="M39.3,236.39c.85,1.92,2.41,3.83,2.43,5.77.13,11.65-.09,23.32-.19,35-.51-8.6-1-17.19-1.51-25.79C39.75,246.37,39.54,241.38,39.3,236.39Z"/><path class="cls-2" d="M106.3,302.94l9.87,2.48Z"/><path class="cls-2" d="M268.3,61.91,267.49,54Z"/><path class="cls-2" d="M94.39,30.17l-.33,8Z"/><path class="cls-2" d="M128.61,21.93l-6.45,1.63Z"/><path class="cls-2" d="M176.65,321.35l6.33,2Z"/><path class="cls-2" d="M100.31,28,94.57,30Z"/><path class="cls-2" d="M118.58,24l-6.4,1.61Z"/><path class="cls-2" d="M116.16,305.41l6.42,1.39Z"/><path class="cls-3" d="M45.89,238.4c16.53-2.26,26.62-17,20-32.08-4.89-11.13-13.17-20.75-19.94-31q0-28-.07-55.94l-.54-5-.42-5.21,4.69,2.91,10.92,3,13.36,3.17c36.82,9.3,73.6,18.76,110.47,27.83,14.92,3.67,30,6.53,45.08,9.75l11.89,3,18,7c.64,3.94,1.84,7.88,1.85,11.82.15,45.51-.41,91,.45,136.53.26,13.33-10,21.8-22.76,18.37-27.2-7.32-54.87-12.87-82.22-19.65-26.24-6.5-52.31-13.64-78.45-20.5l-4.47-1.31-26-5.3-.12-.11-1.86-11.74.21-5.09ZM164.94,149l5.85,1.42,3.7-.48-3.68-2.63a3.17,3.17,0,0,0-1.71-.34l-5.88-.58ZM59.74,276.82,58,276.45l-3.9-1.24-2.6,1.23,2.45,2.14a2.56,2.56,0,0,0,1.61.44l6.57.11-2.33-2.3Zm40.33-147.58a15.92,15.92,0,0,0-3.7-1.09,52.06,52.06,0,0,0-5.84.31l5.51,2.7,5.35.85ZM68.73,282.34c-.66.09-1.33.16-2,.26l-4.89.81a33.1,33.1,0,0,0,4.08,1.64c4.19,1.09,8.44,2,12.63,3.05,29.59,7.65,59.12,15.51,88.76,22.94,24,6,48.06,11.5,72.08,17.27,12.73,3.06,18.16-1.29,18.17-14.76q0-58.14,0-116.27c0-2.35-.08-4.71-.12-7.07l-4,1.62-4.13,5.82c-2.37,2.34-4.8,4.63-7.11,7-8.52,8.86-15.93,19.22-25.68,26.37-31.67,23.21-65.64,42-105.32,47.88-7.74,1.15-15.43,2.67-23.14,4l-.61.29L81,282.7C77,281.07,73.05,274.84,68.73,282.34Zm84-133.7,3.69-4.17a85.07,85.07,0,0,0-8.58-5c-.56-.25-2.1,1.63-3.18,2.52ZM228.85,164l.74-1.9c-1.1-.89-2.12-2.38-3.33-2.56a61.67,61.67,0,0,0-8.39-.21c.95,1.12,1.7,2.84,2.89,3.23A54.1,54.1,0,0,0,228.85,164Zm15.39,4.88,2.3,1.38c.29-1.29,1.13-3.53.8-3.72a59,59,0,0,0-9.09-4.21c-.51-.19-1.65,1.39-2.5,2.15ZM55.1,116.49c-.41,1.5-1.28,3.63-1,3.8a49.22,49.22,0,0,0,8.45,4.11c.61.22,1.84-1.28,2.78-2ZM77,122.11l-4.79,2.57c2.52,1.21,5,2.7,7.59,3.48,1,.29,2.44-1.08,3.69-1.69ZM248.58,178c1.09,2.44,2.08,4.67,3.08,6.9.76-2.29,2.15-4.59,2.1-6.87s-1.61-4.26-2.5-6.39C250.42,173.65,249.59,175.64,248.58,178Zm-128.67-41.7.48-1.76c-2.21-1.07-4.32-2.55-6.65-3.07-1.57-.36-3.44.61-5.18,1,2.07,1.28,4,2.88,6.24,3.73C116.3,136.8,118.19,136.33,119.91,136.33ZM207,160.45l3.7-2.31c-2.69-1.38-5.31-2.94-8.11-4-.73-.29-2,.84-3.05,1.31Zm-19.42-4.4,4.87-2.54a54.44,54.44,0,0,0-7.5-3.36c-1-.28-2.39,1-3.61,1.56Zm-49.71-15.81.42-1.62c-2.16-1-4.25-2.36-6.53-2.87-1.56-.35-3.39.49-5.09.8,1.67,1.23,3.2,2.93,5.07,3.56S135.81,140.24,137.86,140.24Z"/><path class="cls-4" d="M151.26,111.06c5.64-25.13,11.21-50.28,17-75.37,2-8.78,13.1-15.49,21.7-13.44,16.25,3.86,32.47,7.81,48.7,11.74,4.22,1,15,11.79,14.58,15.57-.26,2.35-2.55,5.75-4.63,6.4-15,4.63-25.11,14.33-31.46,28.4-10.2-6.88-21.32-9.58-31.94-2.44-9.82,6.6-14.81,16.41-10.94,28.9Zm58.21-72.15c-3.87,4.79-8.16,8.13-7.59,9.84,1,3,5,4.91,7.72,7.29,1.91-2.28,5.24-4.51,5.33-6.86C215,46.52,212.22,43.75,209.47,38.91Z"/><path class="cls-5" d="M103.05,89.85c-1.58.93-3.14,2.62-4.75,2.66-10.75.25-21.51,0-32.27.27-2,0-4,1.41-6,2.16,1.67,1.21,3.19,3.09,5,3.54,39.57,9.58,79.15,19.13,118.79,28.4,21.53,5,43.22,9.39,64.76,14.38a93.65,93.65,0,0,1,16.65,6c7.19,3.2,8.45,9.66,8.44,16.85q-.09,68.77,0,137.55c0,3.71.57,7.54-.14,11.1a65.7,65.7,0,0,1-4.66,14.21c-.76,1.64-3.59,2.32-5.48,3.44a55.14,55.14,0,0,0,1.43-5.44,57.66,57.66,0,0,0,1.05-8.94q.09-70.29,0-140.59c0-13.14-4.31-19-17-22.6-6.75-1.94-13.65-3.35-20.49-5L56.89,106.47c-6.4-1.54-11.38-4.16-9.94-12.12C52.64,93,58.28,90.73,64,90.42,77,89.72,90,90,103.05,89.85Z"/><path class="cls-5" d="M279.85,274.69c-.55-3.52-1.56-7-1.57-10.54-.13-32.89-.23-65.78,0-98.67.06-7.75-1.24-14.59-6.54-20.39q.14-8.24.26-16.46c3.87-4.13,7.63-8.37,11.67-12.32,1.29-1.26,3.29-1.78,5-2.64.49,1.79,1.4,3.58,1.42,5.38.11,14.77,0,29.54,0,44.3,0,31.89.07,63.77-.06,95.65,0,5.15,1.05,11.08-5.5,13.75Z"/><path class="cls-4" d="M126.76,109.17c-1.83-2.44-4.72-4.63-5.33-7.35-3.17-14-5.86-28.13-8.51-42.25a19.33,19.33,0,0,1,15-22.27c7.8-1.65,15.65-3,23.48-4.53-1.39,7.69-2.6,15.43-4.21,23.07-3.44,16.38-7.24,32.68-10.57,49.08-.81,4-1.86,6.36-6.35,5.12Z"/><path class="cls-6" d="M174.25,110.82c-3.87-12.49,1.12-22.3,10.94-28.9,10.62-7.14,21.74-4.44,31.94,2.44-.11,6-.65,12-.24,17.87.62,8.77-.53,10.22-9.25,10-6.24-.15-12.48,0-18.72,0Z"/><path class="cls-6" d="M267.86,32.62c-1.46,6.87-2.75,13.78-4.55,20.55-.35,1.31-2.68,2.09-4.09,3.12-.65-1.5-1.83-3-1.84-4.51-.07-8-8.35-19.34-15.92-21.21-12-3-24.07-5.62-36-8.77-5-1.32-9.7-3.74-14.64-5.35a98.79,98.79,0,0,0-9.71-2.16c-1.91,9.35-14.83,7.74-16.76,18.4-4.35,24-10.29,47.73-15.86,71.5-.57,2.43-3,4.41-4.59,6.61,2.62-12.79,5.4-25.54,7.81-38.37,1.91-10.13,3.37-20.35,5-30.53l0,.07,4-8.15c.48-1.37,1-2.74,1.46-4.11l1.1-9.66,1.24-2.5c1.63-9.91,1.62-9.81,11.62-8.24,2.92.46,6,.16,8.94.21l-.07,0c8.44,3.34,16.66,7.56,25.39,9.84C229.42,24.28,248.69,28.25,267.86,32.62Z"/><path class="cls-5" d="M299.9,94.38c.68,3.18,1.94,6.35,2,9.53.12,49.19.19,98.37-.11,147.55,0,5.12-2.41,10.27-4,15.32-.3,1-1.86,1.59-2.83,2.37a27.63,27.63,0,0,1-.17-3.85c.38-4.31,1.26-8.62,1.27-12.93.09-44.13.22-88.26-.14-132.38-.05-5.7-3-11.33-4.25-17.06-.94-4.19-1.37-8.49-2-12.75Z"/><path class="cls-3" d="M272,128.63q-.14,8.22-.26,16.46c-4-2.08-7.73-5.11-11.95-6.09-30.15-6.95-60.4-13.46-90.61-20.17a26.29,26.29,0,0,1-4.4-1.87l56.76-.37c4.87,4,9.34,8.75,14.71,12C248,135.54,260.1,133.41,272,128.63Z"/><path class="cls-7" d="M229.42,155.81c-15-3.22-30.16-6.08-45.08-9.75-36.87-9.07-73.65-18.53-110.47-27.83l4.58-1.65,64.16,14.62,6.49,1.53a2.06,2.06,0,0,1,1.6.31l6.49,1.66,31.71,6.94,4.43,3.37,37.92,8.59Z"/><path class="cls-8" d="M26.19,169.44c19.09,7.13,28.15,23.2,35.36,40.63,1.05,2.53.39,7.52-1.41,9s-6.19.66-9.29.08c-3.65-.69-7.13-2.21-10.69-3.37l-.3.08-8.72-11.52,3.81-.6L37.78,206l-.16-.12,2.3,1.67L43.8,210l9.82.26c3.5-4.66,2.71-8.17-2.76-10.43l-5.4-10.24-8.8-8.09-1.87-3.9c-4.6-2.27-9.19-8.06-13.83,0-.55,6.84.44,13,7.47,16.32L31,204.26l-9.52-6.41,0,0q-2.8-8.76-5.59-17.52l-.2-6.59Z"/><path class="cls-6" d="M154.6,23.07c-2.4,1.87-4.54,4.51-7.26,5.43-5,1.68-10.38,3.4-15.54,3.23-12.59-.42-17.33,9.47-23.85,17-.91,1-.2,3.73.15,5.58,3,15.72,6,31.42,9,47.13.46,2.4,2.57,5.78-2.78,4.76l-1.47-3.86-.56-7.71-1.49-2.33-.23-3.6-.24-4.3L108,72.54q-.81-3.2-1.63-6.38c-1.62-8.45-2.86-17-5-25.31-1.24-4.77-.4-6.41,4.5-7.38,7-1.38,13.74-3.78,20.6-5.75l-.08.06h4.1l6.28-1.57Z"/><path class="cls-8" d="M233.44,120.87c-16.37-14.59-16.52-36.23-.35-50.54,2.79-1,5.57-2.77,8.39-2.85,5.65-.17,11.33.59,17,1-13.3-1-23.93,3.57-29.15,16.28-5.09,12.39-2,23.56,8,32.64Z"/><path class="cls-8" d="M279.66,77.2c6.86,12.79,7.1,25.33-1.38,37.55l-2.37,2.87a3.39,3.39,0,0,1-1.35,1.43L268.94,117c3.08-5.33,7.69-10.32,8.95-16,3.34-15.19-2.54-24.11-19.31-32.46l7.09.09q5.1,3.24,10.22,6.46Z"/><path class="cls-9" d="M267.86,32.62c-19.17-4.37-38.44-8.34-57.46-13.29-8.73-2.28-17-6.5-25.39-9.84,12.37,3.17,24.73,6.42,37.13,9.48,12.64,3.13,25.37,5.92,38,9.21C262.89,28.91,265.29,31.1,267.86,32.62Z"/><path class="cls-3" d="M45.71,232.21c-9.88.1-14.08-8.4-20.45-13.61L31.85,212l8,3.84.3-.08,11.44,8.48Z"/><path class="cls-3" d="M268.94,117l5.62,2.08c-12.73,12.06-26.95,12.7-41.12,1.82l3.89-3.51C248,124.14,258.49,123.94,268.94,117Z"/><path class="cls-9" d="M156.71,41.9c-1.65,10.18-3.11,20.4-5,30.53-2.41,12.83-5.19,25.58-7.81,38.37-1.06-.84-3.17-1.92-3-2.47C146,86.16,151.37,64,156.71,41.9Z"/><path class="cls-9" d="M126.47,27.72c-6.86,2-13.63,4.37-20.6,5.75-4.9,1-5.74,2.61-4.5,7.38,2.16,8.31,3.4,16.86,5,25.31l0,6.12-.82.74a6.06,6.06,0,0,0-1.11-.76C102.34,61.49,100.89,50.54,98,40c-1.86-6.64.14-8.09,6-8.76,5.58-.64,11-2.33,16.55-3.55Z"/><path class="cls-9" d="M160.72,33.82l-4,8.15c2.11-11.35,4-22.74,6.53-34,.36-1.64,3.78-4,5.28-3.72,5.64,1.23,11.08,3.44,16.59,5.27-3,0-6,.25-8.94-.21-10-1.57-10-1.67-11.62,8.24l-1.24,2.5-1.1,9.66C161.69,31.08,161.2,32.45,160.72,33.82Z"/><path class="cls-10" d="M15.59,207.88,7.88,195.7l6-7,7.57,9.07,0,0,.07,3.21Z"/><path class="cls-8" d="M15.59,207.88l6-6.82,10.26,11-6.59,6.57Z"/><path class="cls-5" d="M221.58,116.59l-56.76.37a26.53,26.53,0,0,1-2.95-.43,7,7,0,0,1,.07-1.45Q191.76,115.77,221.58,116.59Z"/><path class="cls-11" d="M103.05,89.85c-13,.13-26-.13-39,.57C58.28,90.73,52.64,93,47,94.35l5.76-5.94,49.55.41A1.81,1.81,0,0,1,103.05,89.85Z"/><path class="cls-5" d="M45.86,119.34q0,28,.07,55.94c-.65-1.1-1.85-2.2-1.85-3.29.06-17.71.27-35.42.44-53.12A1.49,1.49,0,0,1,45.86,119.34Z"/><path class="cls-5" d="M98.55,95.93,106,101c-1.24.93-2.86,2.9-3.67,2.61-4.16-1.47-8.1-3.53-12.12-5.38Z"/><path class="cls-8" d="M13.92,188.74l-6,7-2.27-7.8,5.13-12.32.72.08Z"/><path class="cls-7" d="M102.26,88.82l-49.55-.41c4.77-.65,9.52-1.72,14.31-1.87,9.56-.31,19.14-.26,28.71,0C97.92,86.57,100.08,88,102.26,88.82Z"/><path class="cls-10" d="M265.67,68.56l-7.09-.09-.1,0c-5.67-.37-11.35-1.13-17-1-2.82.08-5.6,1.85-8.39,2.85l12.57-6.44,14.4-.11a1.65,1.65,0,0,1,1.54.52Z"/><path class="cls-2" d="M174.25,110.82l14.67,1.43-37.66-1.19Z"/><path class="cls-5" d="M45.89,238.4l0,30.44a1.47,1.47,0,0,1-1,.22Z"/><path class="cls-9" d="M154.6,23.07,136.77,26.2l-4.32-.34Z"/><path class="cls-11" d="M229.42,155.81l1.83-2.21,16.23,3.73-6.17,1.48Z"/><path class="cls-9" d="M108,72.54l2.34,11.88.24,4.3.23,3.6-.25,2.05-.23.21c-.49-.28-1-.55-1.5-.79l-3-15.16c-.1-1.87-.2-3.74-.31-5.61l.82-.74Z"/><path class="cls-11" d="M78.45,116.58l-4.58,1.65-13.36-3.17,5.21-1.76Z"/><path class="cls-7" d="M265.67,68.56,261.6,64.3l14.12,8.13c0,.87.11,1.73.17,2.59Q270.78,71.8,265.67,68.56Z"/><path class="cls-7" d="M241.31,158.81l6.17-1.48,11.86,8.49Z"/><path class="cls-8" d="M45.71,232.21l5.89-7.94,4.18.29,0,5.06Z"/><path class="cls-11" d="M299.9,94.38l-10.28-4.2,2.06-3.52Z"/><path class="cls-7" d="M65.72,113.3l-5.21,1.76-10.92-3,2.67-1.61Z"/><path class="cls-10" d="M10.74,175.58,5.61,187.9l3.86-14.26Z"/><path class="cls-2" d="M10.74,175.58l-1.27-1.94,6.26-4.12,0,4.18.2,6.59-4.44-4.63Z"/><path class="cls-11" d="M260.06,63.78l-14.4.11Z"/><path class="cls-10" d="M15.7,173.7l0-4.18,10.46-.08Z"/><path class="cls-11" d="M52.26,110.46l-2.67,1.61-4.69-2.91C46.52,106.41,46.52,106.41,52.26,110.46Z"/><path class="cls-8" d="M44.9,269.06a1.47,1.47,0,0,0,1-.22l-.21,5.09Z"/><path class="cls-9" d="M112.32,94.65l.56,7.71-.47,2.77-2.14-2.27q0-4.14.08-8.28l.23-.21A8.53,8.53,0,0,0,112.32,94.65Z"/><path class="cls-11" d="M193.33,145l-4.43-3.37Z"/><path class="cls-7" d="M45.86,119.34a1.49,1.49,0,0,0-1.34-.47l.8-4.5Z"/><path class="cls-2" d="M110.35,94.58q0,4.14-.08,8.28c-.48-3-1-6-1.42-9.07C109.36,94,109.86,94.3,110.35,94.58Z"/><path class="cls-5" d="M55.83,229.62l0-5.06Z"/><path class="cls-11" d="M157.19,134.7,150.7,133Z"/><path class="cls-11" d="M149.1,132.73l-6.49-1.53Z"/><path class="cls-2" d="M105.54,73l.31,5.61-1.42-6.37A6.06,6.06,0,0,1,105.54,73Z"/><path class="cls-2" d="M126.47,27.72l-5.94,0,6.22-1.53a3.75,3.75,0,0,0-.36,1.61Z"/><path class="cls-11" d="M275.89,75c-.06-.86-.12-1.72-.17-2.59l3.94,4.77Z"/><path class="cls-4" d="M132.45,25.86l4.32.34-6.28,1.57a15.63,15.63,0,0,1,.12-1.67A2.29,2.29,0,0,1,132.45,25.86Z"/><path class="cls-2" d="M126.76,109.17l3.52.87Z"/><path class="cls-9" d="M130.61,26.1a15.63,15.63,0,0,0-.12,1.67h-4.1a3.75,3.75,0,0,1,.36-1.61Z"/><path class="cls-5" d="M73.74,291.08l4.47,1.31Z"/><path class="cls-4" d="M112.41,105.13l.47-2.77,1.47,3.86Z"/><path class="cls-3" d="M279.85,274.69l4.74-1.94Z"/><path class="cls-3" d="M275.91,117.62l2.37-2.87Z"/><path class="cls-3" d="M332.1,227l9.18-13.22,9.57,4.52L339,234.42l-4.76-.07h0C333.49,231.91,332.8,229.46,332.1,227Z"/><path class="cls-8" d="M350.85,218.31l-9.57-4.52q5.09-6.28,10.18-12.56l7.89,6.88Z"/><path class="cls-7" d="M359.35,208.11l-7.89-6.88,6.33-7.44,7.58,7.53Z"/><path class="cls-8" d="M365.37,201.32l-7.58-7.53c2.36.37,5.28,0,6.88,1.34C365.81,196.06,365.2,199.18,365.37,201.32Z"/><path class="cls-8" d="M332.1,227c.7,2.45,1.39,4.9,2.09,7.35l-5.31-2.81C330,230,331,228.53,332.1,227Z"/><path class="cls-8" d="M334.19,234.35l4.76.07C335.6,238,335.58,238,334.19,234.35Z"/><path class="cls-5" d="M253.43,191.83l4-1.62c0,2.36.12,4.72.12,7.07q0,58.14,0,116.27c0,13.47-5.44,17.82-18.17,14.76-24-5.77-48.12-11.26-72.08-17.27-29.64-7.43-59.17-15.29-88.76-22.94-4.19-1.08-8.44-2-12.63-3.05a33.1,33.1,0,0,1-4.08-1.64l4.89-.81c.66-.1,1.33-.17,2-.26l12.3.36,6.41.54C87.79,290,93.2,288,97,288.72c.32.07.82-.81,1.23-1.25-2.4-1.37-4.76-2.82-7.22-4.06a9.52,9.52,0,0,0-2.93-.46c7.71-1.35,15.4-2.87,23.14-4,39.68-5.85,73.65-24.67,105.32-47.88,9.75-7.15,17.16-17.51,25.68-26.37,2.31-2.4,4.74-4.69,7.11-7,.8,1.89,1.59,3.78,2.39,5.68a32,32,0,0,0,2-5.67A29.35,29.35,0,0,0,253.43,191.83ZM186.84,314.17l3.37-4.21a66.25,66.25,0,0,0-7.9-4.73c-.73-.32-2.31,1.3-3.51,2Zm-14.86-9,.09-1.92a57,57,0,0,0-7.85-2.27c-.95-.14-2.13,1.34-3.21,2.08a85.26,85.26,0,0,0,8,3.28C169.77,306.64,171,305.64,172,305.21Zm63.71,13.69-2.2,3a75,75,0,0,0,7.83,3.28c.78.24,2-1,3-1.5Zm-6.8.07c-5.32-1.67-8.26-2.71-11.28-3.45-.59-.14-1.46.88-2.2,1.36,2.68,1.43,5.29,3,8.07,4.2C224.2,321.38,225.47,320.36,228.89,319Zm25.67-102.7-3-5.19c-.64,1.67-1.87,3.38-1.77,5,.12,1.93,1.38,3.78,2.15,5.66Zm-5.8,21.29c1.12,2.32,1.91,3.94,2.69,5.57.77-1.87,2-3.71,2.15-5.63.11-1.68-1-3.44-1.6-5.16Zm5.8,18.7-3-5.41c-.66,1.67-1.91,3.36-1.83,5,.1,2,1.33,3.89,2.07,5.83Zm0,39.27c-1.09-2.24-1.87-3.86-2.65-5.48-.77,1.9-2,3.77-2.14,5.71-.1,1.64,1.13,3.37,1.77,5.05Zm-101.33,5.22.06-1.95a73.6,73.6,0,0,0-7.74-2.05c-.79-.12-1.78,1.08-2.68,1.67a80.62,80.62,0,0,0,7.45,3.42C151.07,302.1,152.25,301.15,153.23,300.75ZM248.78,317l2.68,5.13c.76-2,2-3.86,2.13-5.85.09-1.57-1.2-3.22-1.87-4.84C250.76,313.22,249.8,315,248.78,317Zm5.75-40.72-3.26-4.73c-.55,1.76-1.68,3.57-1.51,5.26.19,1.89,1.54,3.66,2.39,5.48ZM108.63,287l-2.38,2.08a71.33,71.33,0,0,0,7.22,3.83c.58.24,1.8-1.1,2.73-1.71Zm99.77,26.52c-3.81-.87-6.78-1.62-9.8-2.12-.33-.06-.9,1.35-1.36,2.09,2.91,1.08,5.8,2.22,8.76,3.13C206.29,316.75,207,315.37,208.4,313.56Zm-72.54-19.09c-4-.84-6.68-1.51-9.43-1.91-.38-.06-1,1.12-1.43,1.72,2.64,1,5.26,2,8,2.85C133.34,297.24,134.09,296.14,135.86,294.47Z"/><path class="cls-7" d="M152.7,148.64,144.63,142c1.08-.89,2.62-2.77,3.18-2.52a85.07,85.07,0,0,1,8.58,5Z"/><path class="cls-7" d="M228.85,164a54.1,54.1,0,0,1-8.09-1.44c-1.19-.39-1.94-2.11-2.89-3.23a61.67,61.67,0,0,1,8.39.21c1.21.18,2.23,1.67,3.33,2.56Z"/><path class="cls-7" d="M244.24,168.85l-8.49-4.4c.85-.76,2-2.34,2.5-2.15a59,59,0,0,1,9.09,4.21c.33.19-.51,2.43-.8,3.72Z"/><path class="cls-7" d="M55.1,116.49l10.24,5.92c-.94.71-2.17,2.21-2.78,2a49.22,49.22,0,0,1-8.45-4.11C53.82,120.12,54.69,118,55.1,116.49Z"/><path class="cls-7" d="M77,122.11l6.49,4.36c-1.25.61-2.71,2-3.69,1.69-2.64-.78-5.07-2.27-7.59-3.48Z"/><path class="cls-7" d="M248.58,178c1-2.39,1.84-4.38,2.68-6.36.89,2.13,2.45,4.25,2.5,6.39s-1.34,4.58-2.1,6.87C250.66,182.7,249.67,180.47,248.58,178Z"/><path class="cls-7" d="M119.91,136.33c-1.72,0-3.61.47-5.11-.11-2.23-.85-4.17-2.45-6.24-3.73,1.74-.38,3.61-1.35,5.18-1,2.33.52,4.44,2,6.65,3.07Z"/><path class="cls-7" d="M207,160.45l-7.46-5c1-.47,2.32-1.6,3.05-1.31,2.8,1.1,5.42,2.66,8.11,4Z"/><path class="cls-7" d="M187.57,156.05l-6.24-4.34c1.22-.57,2.64-1.84,3.61-1.56a54.44,54.44,0,0,1,7.5,3.36Z"/><path class="cls-7" d="M137.86,140.24c-2.05,0-4.27.48-6.13-.13s-3.4-2.33-5.07-3.56c1.7-.31,3.53-1.15,5.09-.8,2.28.51,4.37,1.87,6.53,2.87Z"/><path class="cls-7" d="M81,282.7l-12.3-.36C73.05,274.84,77,281.07,81,282.7Z"/><path class="cls-11" d="M88.05,283a9.52,9.52,0,0,1,2.93.46c2.46,1.24,4.82,2.69,7.22,4.06-.41.44-.91,1.32-1.23,1.25-3.77-.75-9.18,1.25-9.53-5.48Z"/><path class="cls-11" d="M253.43,191.83a29.35,29.35,0,0,1,.22,5.83,32,32,0,0,1-2,5.67c-.8-1.9-1.59-3.79-2.39-5.68Z"/><path class="cls-12" d="M96,131.16l-5.51-2.7a52.06,52.06,0,0,1,5.84-.31,15.92,15.92,0,0,1,3.7,1.09Z"/><path class="cls-12" d="M55.54,279a2.56,2.56,0,0,1-1.61-.44l.15-3.37,3.9,1.24.82.49.94-.12h0Z"/><path class="cls-7" d="M170.81,147.34l3.68,2.63-3.7.48Z"/><path class="cls-7" d="M55.54,279l4.24-2.19,2.33,2.3Z"/><path class="cls-7" d="M96,131.16l4-1.92,1.32,2.77Z"/><path class="cls-7" d="M164.94,149l-1.72-2.61,5.88.58Z"/><path class="cls-12" d="M164.94,149l4.16-2a3.17,3.17,0,0,1,1.71.34l0,3.11Z"/><path class="cls-7" d="M54.08,275.21l-.15,3.37-2.45-2.14Z"/><path class="cls-7" d="M59.74,276.82l-.94.12-.82-.49Z"/><path class="cls-6" d="M209.47,38.91c2.75,4.84,5.56,7.61,5.46,10.27-.09,2.35-3.42,4.58-5.33,6.86-2.73-2.38-6.74-4.33-7.72-7.29C201.31,47,205.6,43.7,209.47,38.91Z"/><path class="cls-4" d="M160.72,33.82c.48-1.37,1-2.74,1.46-4.11C161.69,31.08,161.2,32.45,160.72,33.82Z"/><path class="cls-4" d="M163.28,20.05l1.24-2.5Z"/><path class="cls-10" d="M34.79,177.6l1.87,3.9,8.8,8.09,5.4,10.24-.1,9.69-2,.28-2.66-1.66-6.22-1.92-2.26-.38.16.12L35,203.75l-3.81.6-.1-.09-2.61-10.39q-2.3-8-4.6-16Z"/><path class="cls-1" d="M31.85,212l-10.26-11-.07-3.21L31,204.26l.1.09,8.72,11.52Z"/><path class="cls-1" d="M11.46,175.66l4.44,4.63q2.79,8.76,5.59,17.52l-7.57-9.07Z"/><path class="cls-13" d="M23.83,177.88q2.3,8,4.6,16c-7-3.35-8-9.48-7.47-16.32Z"/><path class="cls-13" d="M50.76,209.52l.1-9.69c5.47,2.26,6.26,5.77,2.76,10.43Z"/><path class="cls-1" d="M23.83,177.88,21,177.55c4.64-8,9.23-2.22,13.83,0Z"/><path class="cls-2" d="M45.46,189.59l-8.8-8.09Z"/><path class="cls-5" d="M50.76,209.52l2.86.74L43.8,210H46l2.72-.19Z"/><path class="cls-2" d="M46,210H43.8l-3.88-2.49c0-.43,0-.86,0-1.29l6.22,1.92A8.19,8.19,0,0,0,46,210Z"/><path class="cls-13" d="M35,203.75,37.78,206Z"/><path class="cls-13" d="M39.88,206.22c0,.43,0,.86,0,1.29l-2.3-1.67Z"/><path class="cls-4" d="M108,72.54l-1.66-.26,0-6.12Q107.22,69.34,108,72.54Z"/><path class="cls-4" d="M110.6,88.72l-.24-4.3Z"/><path class="cls-4" d="M112.32,94.65a8.53,8.53,0,0,1-1.74-.28l.25-2.05Z"/><path class="cls-1" d="M258.48,68.44l.1,0c16.77,8.35,22.65,17.27,19.31,32.46-1.26,5.72-5.87,10.71-8.95,16-10.45,7-21,7.17-31.61.39-10-9.08-13.09-20.25-8-32.64C234.55,72,245.18,67.43,258.48,68.44Zm3,6.14-16.34-.06c-2.74,1.8-5.94,3.16-8.12,5.48-6.67,7.11-7.07,15.68-4,24.4,3,8.46,9.66,12.91,18.24,13.67s16-2.9,20.1-10.65c4.34-8.1,4.65-16.66-.38-24.87Z"/><path class="cls-11" d="M186.84,314.17l-8-6.92c1.2-.72,2.78-2.34,3.51-2a66.25,66.25,0,0,1,7.9,4.73Z"/><path class="cls-11" d="M172,305.21c-1,.43-2.21,1.43-3,1.17a85.26,85.26,0,0,1-8-3.28c1.08-.74,2.26-2.22,3.21-2.08a57,57,0,0,1,7.85,2.27Z"/><path class="cls-11" d="M235.69,318.9l8.63,4.82c-1,.54-2.22,1.74-3,1.5a75,75,0,0,1-7.83-3.28Z"/><path class="cls-11" d="M228.89,319c-3.42,1.39-4.69,2.41-5.41,2.11-2.78-1.18-5.39-2.77-8.07-4.2.74-.48,1.61-1.5,2.2-1.36C220.63,316.26,223.57,317.3,228.89,319Z"/><path class="cls-11" d="M254.56,216.27l-2.66,5.47c-.77-1.88-2-3.73-2.15-5.66-.1-1.62,1.13-3.33,1.77-5Z"/><path class="cls-11" d="M248.76,237.56l3.24-5.22c.58,1.72,1.71,3.48,1.6,5.16-.14,1.92-1.38,3.76-2.15,5.63C250.67,241.5,249.88,239.88,248.76,237.56Z"/><path class="cls-11" d="M254.56,256.26l-2.72,5.41c-.74-1.94-2-3.86-2.07-5.83-.08-1.63,1.17-3.32,1.83-5Z"/><path class="cls-11" d="M254.56,295.53l-3,5.28c-.64-1.68-1.87-3.41-1.77-5.05.11-1.94,1.37-3.81,2.14-5.71C252.69,291.67,253.47,293.29,254.56,295.53Z"/><path class="cls-11" d="M153.23,300.75c-1,.4-2.16,1.35-2.91,1.09a80.62,80.62,0,0,1-7.45-3.42c.9-.59,1.89-1.79,2.68-1.67a73.6,73.6,0,0,1,7.74,2.05Z"/><path class="cls-11" d="M248.78,317c1-1.94,2-3.75,2.94-5.56.67,1.62,2,3.27,1.87,4.84-.12,2-1.37,3.9-2.13,5.85Z"/><path class="cls-11" d="M254.53,276.25l-2.38,6c-.85-1.82-2.2-3.59-2.39-5.48-.17-1.69,1-3.5,1.51-5.26Z"/><path class="cls-11" d="M108.63,287l7.57,4.2c-.93.61-2.15,1.95-2.73,1.71a71.33,71.33,0,0,1-7.22-3.83Z"/><path class="cls-11" d="M208.4,313.56c-1.37,1.81-2.11,3.19-2.4,3.1-3-.91-5.85-2.05-8.76-3.13.46-.74,1-2.15,1.36-2.09C201.62,311.94,204.59,312.69,208.4,313.56Z"/><path class="cls-11" d="M135.86,294.47c-1.77,1.67-2.52,2.77-2.9,2.66-2.7-.81-5.32-1.87-8-2.85.48-.6,1-1.78,1.43-1.72C129.18,293,131.89,293.63,135.86,294.47Z"/><path class="cls-13" d="M46,210a8.19,8.19,0,0,1,.06-1.85l2.66,1.66Z"/><path class="cls-10" d="M271,82.55c5,8.21,4.72,16.77.38,24.87-4.14,7.75-11.43,11.41-20.1,10.65S236,112.86,233.05,104.4c-3.05-8.72-2.65-17.29,4-24.4,2.18-2.32,5.38-3.68,8.12-5.48l16.66,1.78Z"/><path class="cls-7" d="M261.85,76.3l-16.66-1.78,16.34.06A16.79,16.79,0,0,1,261.85,76.3Z"/><path class="cls-11" d="M261.85,76.3a16.79,16.79,0,0,0-.32-1.72l9.48,8Z"/></g></g></svg>
