<?xml version="1.0" standalone="yes"?>
<svg xmlns="http://www.w3.org/2000/svg" width="66" height="56">
<path style="fill:#010101; stroke:none;" d="M0 0L0 42L1 42C4.86877 22.999 36.9839 40.0123 20 55L20 56L29 56C25.1494 49.0003 26 41.7826 26 34L32 34C32 37.506 30.0926 49.8564 35.1196 50.534C40.9058 51.3139 39 37.2811 39 34L45 34C45 41.7826 45.8506 49.0003 42 56L53 56L53 39L46 39L46 34L66 34L66 0C58.257 2.42135 55.0249 14.7268 55 22L49 22C48.9754 14.8398 45.2269 4.07882 39 0L45 22C41.1224 21.8746 38.9282 21.4984 37 18L21 22L28 0L19 0C23.9262 11.6258 17.7834 15 7 15L7 22L1 22L0 0z"/>
<path style="fill:#fdfbfb; stroke:none;" d="M1 0L1 22L7 22L7 15C10.4075 15 15.7108 15.955 18.6821 13.9722C22.0662 11.714 22.0662 3.28599 18.6821 1.02778C14.597 -1.69818 5.75445 0 1 0M21 22L37 18C38.3429 22.046 41.0654 21.9534 45 22L39 0C25.4527 0 22.8704 9.33487 21 22M41 0L49 22L55 22L63 0C56.9654 0.0213776 54.4956 0.852215 53 7L51 7C49.5044 0.852215 47.0346 0.0213776 41 0z"/>
<path style="fill:#010101; stroke:none;" d="M49 0L51 7L53 7L55 0L49 0M7 5L7 10C15.3644 9.90086 15.3644 5.09914 7 5M32 7L31 13L35 13L32 7z"/>
<path style="fill:#fdfbfb; stroke:none;" d="M5.1088 34.7423C-1.04809 37.3854 -1.27737 49.0379 2.72762 53.5664C5.85984 57.108 15.8063 57.0145 19.8912 55.2577C25.2802 52.9401 25.7389 40.5259 22.2577 36.4336C19.2121 32.8534 9.13298 33.0147 5.1088 34.7423M26 34C26 39.2489 24.2828 48.2158 27.0278 52.8519C29.7877 57.5132 41.2123 57.5132 43.9722 52.8519C46.7172 48.2159 45 39.2489 45 34L39 34C39 36.9893 40.6445 51.002 35.1196 50.0787C30.2391 49.2631 32 37.4192 32 34L26 34M46 34L46 39L53 39L53 56L59 56L59 39L66 39L66 34L46 34z"/>
<path style="fill:#010101; stroke:none;" d="M9.43364 40.0285C3.87285 43.8159 9.52984 54.5662 15.3966 49.9715C19.9648 46.3937 15.7572 35.7217 9.43364 40.0285M59 39L59 56L66 56L66 39L59 39M0 48L0 56L5 56L5 55L0 48z"/>
</svg>
